<svg xmlns="http://www.w3.org/2000/svg" xmlns:xlink="http://www.w3.org/1999/xlink" viewBox="0 0 150 150"><defs><style>.cls-1,.cls-4{fill:none;stroke-miterlimit:10;stroke-width:3px;}.cls-1{stroke:url(#linear-gradient);}.cls-2{fill:url(#linear-gradient-2);}.cls-3{fill:#fff;}.cls-4{stroke:url(#linear-gradient-3);}.cls-5{fill:url(#linear-gradient-4);}</style><linearGradient id="linear-gradient" x1="53.87" y1="40.43" x2="88.96" y2="125.09" gradientTransform="matrix(0.97, 0.4, -0.35, 0.84, 28.93, -20.05)" gradientUnits="userSpaceOnUse"><stop offset="0" stop-color="#ff7171"/><stop offset="0.12" stop-color="#ff7a71"/><stop offset="0.31" stop-color="#ff9471"/><stop offset="0.55" stop-color="#ffbb71"/><stop offset="1" stop-color="#ff7171"/></linearGradient><linearGradient id="linear-gradient-2" x1="39.91" y1="32.72" x2="96.34" y2="130.46" gradientUnits="userSpaceOnUse"><stop offset="0" stop-color="#bbecf2"/><stop offset="0.12" stop-color="#b6e3f3"/><stop offset="0.32" stop-color="#a9c9f7"/><stop offset="0.58" stop-color="#95a0fc"/><stop offset="0.71" stop-color="#8989ff"/><stop offset="0.92" stop-color="#7f29cf"/></linearGradient><linearGradient id="linear-gradient-3" x1="54.6" y1="41.55" x2="89.24" y2="125.11" xlink:href="#linear-gradient"/><linearGradient id="linear-gradient-4" x1="126.69" y1="81.37" x2="93.9" y2="138.16" gradientUnits="userSpaceOnUse"><stop offset="0" stop-color="#b1f4b6"/><stop offset="0.11" stop-color="#a8f0ae"/><stop offset="0.3" stop-color="#8ee698"/><stop offset="0.53" stop-color="#65d674"/><stop offset="0.71" stop-color="#43c956"/><stop offset="0.92" stop-color="#b9c906"/></linearGradient></defs><g id="Layer_2" data-name="Layer 2"><path class="cls-1" d="M122.4,72.9c10.8,11,15,22.1,11.1,31.5-7.5,18.3-42.1,21.4-77.3,7S-.5,70.7,6.2,52.1c4.1-11.4,18.5-15.2,32.5-16.5"/></g><g id="Layer_1" data-name="Layer 1"><circle class="cls-2" cx="68.1" cy="81.6" r="56.4"/><path class="cls-3" d="M88,72.3a17.2,17.2,0,0,1-3.9,8.6,24.2,24.2,0,0,1-9.8,6.6l-7.8,3.2L74,109.4l-12.6,5.2L40.2,62.5l20.6-8.3a24.4,24.4,0,0,1,11.4-2.1A14.8,14.8,0,0,1,81,55.4a17.7,17.7,0,0,1,5.7,7.8A19.1,19.1,0,0,1,88,72.3ZM74,74a7.3,7.3,0,0,0-.2-5.6,6.9,6.9,0,0,0-3.7-4.1,8.3,8.3,0,0,0-6.1.5l-6.9,2.8,5.3,13.1,6.9-2.8A8.6,8.6,0,0,0,74,74Z"/><path class="cls-4" d="M125.9,77c9.7,11,11.6,18.1,7.8,27.5-7.6,18.3-42.2,21.5-77.3,7S-1.2,70.6,6.3,52.2c3.8-9.1,11.4-14.4,25.3-15.7"/><circle class="cls-5" cx="110.3" cy="109.8" r="32.8"/><path class="cls-3" d="M118.7,132.9l-8.3-3.8L106.1,102l-9.5,20.9-8.2-3.8,15.4-33.8L112,89l4.3,27.3,9.5-21,8.3,3.7Z"/></g></svg>